<svg xmlns="http://www.w3.org/2000/svg" xmlns:xlink="http://www.w3.org/1999/xlink" width="90" zoomAndPan="magnify" viewBox="0 0 67.5 37.5" height="50" preserveAspectRatio="xMidYMid meet" version="1.0"><defs><clipPath id="327c2abc8c"><path d="M 0.199219 0 L 66.808594 0 L 66.808594 37.007812 L 0.199219 37.007812 Z M 0.199219 0 " clip-rule="nonzero"/></clipPath><clipPath id="2e3e63c5fd"><path d="M 31.652344 3.699219 L 35.355469 3.699219 L 35.355469 33.304688 L 31.652344 33.304688 Z M 31.652344 3.699219 " clip-rule="nonzero"/></clipPath><clipPath id="5fa367132b"><path d="M 33.503906 3.699219 C 34.523438 3.699219 35.355469 4.527344 35.355469 5.550781 L 35.355469 31.457031 C 35.355469 32.476562 34.523438 33.304688 33.503906 33.304688 C 32.480469 33.304688 31.652344 32.476562 31.652344 31.457031 L 31.652344 5.550781 C 31.652344 4.527344 32.480469 3.699219 33.503906 3.699219 Z M 33.503906 3.699219 " clip-rule="nonzero"/></clipPath><clipPath id="5127f5fae3"><path d="M 0.652344 0.699219 L 4.355469 0.699219 L 4.355469 30.304688 L 0.652344 30.304688 Z M 0.652344 0.699219 " clip-rule="nonzero"/></clipPath><clipPath id="31c73c9f14"><path d="M 2.503906 0.699219 C 3.523438 0.699219 4.355469 1.527344 4.355469 2.550781 L 4.355469 28.457031 C 4.355469 29.476562 3.523438 30.304688 2.503906 30.304688 C 1.480469 30.304688 0.652344 29.476562 0.652344 28.457031 L 0.652344 2.550781 C 0.652344 1.527344 1.480469 0.699219 2.503906 0.699219 Z M 2.503906 0.699219 " clip-rule="nonzero"/></clipPath><clipPath id="5f859fc13e"><rect x="0" width="5" y="0" height="31"/></clipPath><clipPath id="0815295407"><path d="M 46.605469 3.699219 L 50.304688 3.699219 L 50.304688 33.304688 L 46.605469 33.304688 Z M 46.605469 3.699219 " clip-rule="nonzero"/></clipPath><clipPath id="5d7ade31da"><path d="M 48.453125 3.699219 C 49.476562 3.699219 50.304688 4.527344 50.304688 5.550781 L 50.304688 31.457031 C 50.304688 32.476562 49.476562 33.304688 48.453125 33.304688 C 47.433594 33.304688 46.605469 32.476562 46.605469 31.457031 L 46.605469 5.550781 C 46.605469 4.527344 47.433594 3.699219 48.453125 3.699219 Z M 48.453125 3.699219 " clip-rule="nonzero"/></clipPath><clipPath id="3b34f20345"><path d="M 0.605469 0.699219 L 4.304688 0.699219 L 4.304688 30.304688 L 0.605469 30.304688 Z M 0.605469 0.699219 " clip-rule="nonzero"/></clipPath><clipPath id="4f373cd112"><path d="M 2.453125 0.699219 C 3.476562 0.699219 4.304688 1.527344 4.304688 2.550781 L 4.304688 28.457031 C 4.304688 29.476562 3.476562 30.304688 2.453125 30.304688 C 1.433594 30.304688 0.605469 29.476562 0.605469 28.457031 L 0.605469 2.550781 C 0.605469 1.527344 1.433594 0.699219 2.453125 0.699219 Z M 2.453125 0.699219 " clip-rule="nonzero"/></clipPath><clipPath id="df8a81f82e"><rect x="0" width="5" y="0" height="31"/></clipPath><clipPath id="3b32937ad1"><path d="M 16.851562 3.699219 L 20.550781 3.699219 L 20.550781 33.304688 L 16.851562 33.304688 Z M 16.851562 3.699219 " clip-rule="nonzero"/></clipPath><clipPath id="3ca087dffb"><path d="M 18.699219 3.699219 C 19.722656 3.699219 20.550781 4.527344 20.550781 5.550781 L 20.550781 31.457031 C 20.550781 32.476562 19.722656 33.304688 18.699219 33.304688 C 17.679688 33.304688 16.851562 32.476562 16.851562 31.457031 L 16.851562 5.550781 C 16.851562 4.527344 17.679688 3.699219 18.699219 3.699219 Z M 18.699219 3.699219 " clip-rule="nonzero"/></clipPath><clipPath id="bec25c2308"><path d="M 0.851562 0.699219 L 4.550781 0.699219 L 4.550781 30.304688 L 0.851562 30.304688 Z M 0.851562 0.699219 " clip-rule="nonzero"/></clipPath><clipPath id="e000f5ef38"><path d="M 2.699219 0.699219 C 3.722656 0.699219 4.550781 1.527344 4.550781 2.550781 L 4.550781 28.457031 C 4.550781 29.476562 3.722656 30.304688 2.699219 30.304688 C 1.679688 30.304688 0.851562 29.476562 0.851562 28.457031 L 0.851562 2.550781 C 0.851562 1.527344 1.679688 0.699219 2.699219 0.699219 Z M 2.699219 0.699219 " clip-rule="nonzero"/></clipPath><clipPath id="04db5f8805"><rect x="0" width="5" y="0" height="31"/></clipPath></defs><g clip-path="url(#327c2abc8c)"><path fill="#ffffff" d="M 0.199219 0 L 66.808594 0 L 66.808594 37.007812 L 0.199219 37.007812 Z M 0.199219 0 " fill-opacity="1" fill-rule="nonzero"/><path fill="#c7c7c7" d="M 0.199219 0 L 66.808594 0 L 66.808594 37.007812 L 0.199219 37.007812 Z M 0.199219 0 " fill-opacity="1" fill-rule="nonzero"/></g><g clip-path="url(#2e3e63c5fd)"><g clip-path="url(#5fa367132b)"><g transform="matrix(1, 0, 0, 1, 31, 3)"><g clip-path="url(#5f859fc13e)"><g clip-path="url(#5127f5fae3)"><g clip-path="url(#31c73c9f14)"><path fill="#545454" d="M 0.652344 0.699219 L 4.355469 0.699219 L 4.355469 30.304688 L 0.652344 30.304688 Z M 0.652344 0.699219 " fill-opacity="1" fill-rule="nonzero"/></g></g></g></g></g></g><g clip-path="url(#0815295407)"><g clip-path="url(#5d7ade31da)"><g transform="matrix(1, 0, 0, 1, 46, 3)"><g clip-path="url(#df8a81f82e)"><g clip-path="url(#3b34f20345)"><g clip-path="url(#4f373cd112)"><path fill="#545454" d="M 0.605469 0.699219 L 4.304688 0.699219 L 4.304688 30.304688 L 0.605469 30.304688 Z M 0.605469 0.699219 " fill-opacity="1" fill-rule="nonzero"/></g></g></g></g></g></g><g clip-path="url(#3b32937ad1)"><g clip-path="url(#3ca087dffb)"><g transform="matrix(1, 0, 0, 1, 16, 3)"><g clip-path="url(#04db5f8805)"><g clip-path="url(#bec25c2308)"><g clip-path="url(#e000f5ef38)"><path fill="#545454" d="M 0.851562 0.699219 L 4.550781 0.699219 L 4.550781 30.304688 L 0.851562 30.304688 Z M 0.851562 0.699219 " fill-opacity="1" fill-rule="nonzero"/></g></g></g></g></g></g></svg>